<svg xmlns="http://www.w3.org/2000/svg" xmlns:xlink="http://www.w3.org/1999/xlink" width="1080" zoomAndPan="magnify" viewBox="0 0 810 809.999993" height="1080" preserveAspectRatio="xMidYMid meet" version="1.0"><defs><clipPath id="99898827e6"><path d="M 72 359 L 443 359 L 443 734 L 72 734 Z M 72 359 " clip-rule="nonzero"/></clipPath><clipPath id="1454bd907f"><path d="M -4.464844 417.363281 L 258.957031 173.890625 L 619.65625 564.144531 L 356.234375 807.617188 Z M -4.464844 417.363281 " clip-rule="nonzero"/></clipPath><clipPath id="9fa8276370"><path d="M -4.464844 417.363281 L 258.957031 173.890625 L 619.65625 564.144531 L 356.234375 807.617188 Z M -4.464844 417.363281 " clip-rule="nonzero"/></clipPath><clipPath id="30b7c14981"><path d="M 261 184 L 632 184 L 632 559 L 261 559 Z M 261 184 " clip-rule="nonzero"/></clipPath><clipPath id="e33d6656e7"><path d="M 184.554688 242.660156 L 447.976562 -0.8125 L 808.675781 389.441406 L 545.253906 632.914062 Z M 184.554688 242.660156 " clip-rule="nonzero"/></clipPath><clipPath id="5f4400513a"><path d="M 184.554688 242.660156 L 447.976562 -0.8125 L 808.675781 389.441406 L 545.253906 632.914062 Z M 184.554688 242.660156 " clip-rule="nonzero"/></clipPath></defs><g clip-path="url(#99898827e6)"><g clip-path="url(#1454bd907f)"><g clip-path="url(#9fa8276370)"><path fill="#18cb96" d="M 442.042969 373.816406 L 122.765625 359.628906 C 61.097656 356.886719 50.683594 477.015625 123.75 479 L 322.421875 484.378906 L 307.246094 684.289062 C 302.625 745.160156 421.347656 751.59375 424.738281 689.722656 Z M 442.042969 373.816406 " fill-opacity="1" fill-rule="nonzero"/></g></g></g><g clip-path="url(#30b7c14981)"><g clip-path="url(#e33d6656e7)"><g clip-path="url(#5f4400513a)"><path fill="#18cb96" d="M 631.058594 199.113281 L 311.785156 184.925781 C 250.113281 182.183594 239.699219 302.3125 312.769531 304.296875 L 511.4375 309.675781 L 496.265625 509.585938 C 491.644531 570.457031 610.367188 576.890625 613.757812 515.019531 Z M 631.058594 199.113281 " fill-opacity="1" fill-rule="nonzero"/></g></g></g></svg>