<svg xmlns="http://www.w3.org/2000/svg" xmlns:xlink="http://www.w3.org/1999/xlink" width="1280" zoomAndPan="magnify" viewBox="0 0 960 540.000001" height="720" preserveAspectRatio="xMidYMid meet" version="1.0"><defs><g/><clipPath id="ad71dfb155"><path d="M 760 161 L 860 161 L 860 262 L 760 262 Z M 760 161 " clip-rule="nonzero"/></clipPath><clipPath id="c6867a44cc"><path d="M 739.378906 176.753906 L 810.445312 111.070312 L 907.761719 216.355469 L 836.691406 282.042969 Z M 739.378906 176.753906 " clip-rule="nonzero"/></clipPath><clipPath id="05bf9caa2f"><path d="M 739.378906 176.753906 L 810.445312 111.070312 L 907.761719 216.355469 L 836.691406 282.042969 Z M 739.378906 176.753906 " clip-rule="nonzero"/></clipPath><clipPath id="ceec9e1ae8"><path d="M 811 114 L 911 114 L 911 215 L 811 215 Z M 811 114 " clip-rule="nonzero"/></clipPath><clipPath id="6d31d73d64"><path d="M 790.375 129.621094 L 861.441406 63.9375 L 958.753906 169.222656 L 887.6875 234.910156 Z M 790.375 129.621094 " clip-rule="nonzero"/></clipPath><clipPath id="0544d148fe"><path d="M 790.375 129.621094 L 861.441406 63.9375 L 958.753906 169.222656 L 887.6875 234.910156 Z M 790.375 129.621094 " clip-rule="nonzero"/></clipPath></defs><g clip-path="url(#ad71dfb155)"><g clip-path="url(#c6867a44cc)"><g clip-path="url(#05bf9caa2f)"><path fill="#18cb96" d="M 859.839844 165.007812 L 773.703125 161.179688 C 757.066406 160.441406 754.257812 192.851562 773.96875 193.382812 L 827.570312 194.835938 L 823.476562 248.769531 C 822.230469 265.191406 854.257812 266.925781 855.171875 250.234375 Z M 859.839844 165.007812 " fill-opacity="1" fill-rule="nonzero"/></g></g></g><g clip-path="url(#ceec9e1ae8)"><g clip-path="url(#6d31d73d64)"><g clip-path="url(#0544d148fe)"><path fill="#18cb96" d="M 910.835938 117.875 L 824.699219 114.046875 C 808.0625 113.308594 805.25 145.714844 824.964844 146.25 L 878.5625 147.703125 L 874.46875 201.636719 C 873.222656 218.058594 905.253906 219.792969 906.167969 203.101562 Z M 910.835938 117.875 " fill-opacity="1" fill-rule="nonzero"/></g></g></g><g fill="#ffffff" fill-opacity="1"><g transform="translate(46.758647, 291.193399)"><g><path d="M 13.796875 0 C 11.285156 0 9.476562 -0.546875 8.375 -1.640625 C 7.269531 -2.742188 6.71875 -4.320312 6.71875 -6.375 L 6.71875 -69.109375 C 6.71875 -71.148438 7.445312 -72.660156 8.90625 -73.640625 C 10.363281 -74.628906 11.957031 -75.125 13.6875 -75.125 C 15.332031 -75.125 16.878906 -74.628906 18.328125 -73.640625 C 19.785156 -72.660156 20.515625 -71.148438 20.515625 -69.109375 L 20.515625 -11.796875 L 59.203125 -11.796875 C 61.484375 -11.796875 63.234375 -11.164062 64.453125 -9.90625 C 65.671875 -8.644531 66.28125 -7.304688 66.28125 -5.890625 C 66.28125 -4.398438 65.671875 -3.046875 64.453125 -1.828125 C 63.234375 -0.609375 61.484375 0 59.203125 0 Z M 13.796875 0 "/></g></g></g><g fill="#ffffff" fill-opacity="1"><g transform="translate(110.202663, 291.193399)"><g><path d="M 33.734375 -10.5 C 36.015625 -10.5 38.253906 -10.8125 40.453125 -11.4375 C 42.648438 -12.070312 44.691406 -13.132812 46.578125 -14.625 C 48.390625 -16.269531 50.160156 -17.035156 51.890625 -16.921875 C 53.617188 -16.804688 55.050781 -16.175781 56.1875 -15.03125 C 57.332031 -13.894531 57.90625 -12.476562 57.90625 -10.78125 C 57.90625 -9.09375 57.082031 -7.460938 55.4375 -5.890625 C 52.675781 -3.222656 49.410156 -1.359375 45.640625 -0.296875 C 41.867188 0.765625 38.015625 1.253906 34.078125 1.171875 C 27.953125 1.171875 22.546875 -0.0820312 17.859375 -2.59375 C 13.179688 -5.113281 9.523438 -8.613281 6.890625 -13.09375 C 4.265625 -17.570312 2.953125 -22.757812 2.953125 -28.65625 C 2.953125 -35.101562 4.207031 -40.765625 6.71875 -45.640625 C 9.238281 -50.515625 12.796875 -54.328125 17.390625 -57.078125 C 21.992188 -59.828125 27.441406 -61.203125 33.734375 -61.203125 C 40.023438 -61.203125 45.367188 -59.925781 49.765625 -57.375 C 54.171875 -54.820312 57.53125 -51.242188 59.84375 -46.640625 C 62.164062 -42.046875 63.328125 -36.679688 63.328125 -30.546875 C 63.328125 -28.578125 62.929688 -26.90625 62.140625 -25.53125 C 61.359375 -24.15625 59.28125 -23.46875 55.90625 -23.46875 L 16.625 -23.46875 C 17.726562 -19.613281 19.8125 -16.488281 22.875 -14.09375 C 25.945312 -11.695312 29.566406 -10.5 33.734375 -10.5 Z M 33.84375 -49.53125 C 29.28125 -49.53125 25.46875 -48.09375 22.40625 -45.21875 C 19.34375 -42.351562 17.378906 -38.601562 16.515625 -33.96875 L 50.828125 -33.96875 C 50.429688 -38.601562 48.894531 -42.351562 46.21875 -45.21875 C 43.550781 -48.09375 39.425781 -49.53125 33.84375 -49.53125 Z M 33.84375 -49.53125 "/></g></g></g><g fill="#ffffff" fill-opacity="1"><g transform="translate(178.717583, 291.193399)"><g><path d="M 54.84375 -60.03125 C 56.882812 -60.03125 58.515625 -59.457031 59.734375 -58.3125 C 60.953125 -57.175781 61.5625 -55.703125 61.5625 -53.890625 L 61.5625 -6.125 C 61.5625 -4.320312 60.953125 -2.847656 59.734375 -1.703125 C 58.515625 -0.566406 56.882812 0 54.84375 0 C 52.875 0 51.335938 -0.453125 50.234375 -1.359375 C 49.140625 -2.265625 48.472656 -3.460938 48.234375 -4.953125 C 45.566406 -2.828125 42.578125 -1.273438 39.265625 -0.296875 C 35.960938 0.679688 32.820312 1.171875 29.84375 1.171875 C 24.175781 1.171875 19.28125 -0.125 15.15625 -2.71875 C 11.03125 -5.3125 7.863281 -8.960938 5.65625 -13.671875 C 3.457031 -18.390625 2.359375 -23.894531 2.359375 -30.1875 C 2.359375 -36.320312 3.578125 -41.707031 6.015625 -46.34375 C 8.453125 -50.988281 11.851562 -54.625 16.21875 -57.25 C 20.582031 -59.882812 25.632812 -61.203125 31.375 -61.203125 C 33.882812 -61.203125 36.671875 -60.726562 39.734375 -59.78125 C 42.804688 -58.84375 45.640625 -57.351562 48.234375 -55.3125 C 48.546875 -56.726562 49.253906 -57.867188 50.359375 -58.734375 C 51.460938 -59.597656 52.957031 -60.03125 54.84375 -60.03125 Z M 31.25 -10.734375 C 34.707031 -10.734375 38.046875 -11.5 41.265625 -13.03125 C 44.492188 -14.5625 46.78125 -16.820312 48.125 -19.8125 L 48.125 -40.21875 C 46.625 -43.125 44.378906 -45.363281 41.390625 -46.9375 C 38.410156 -48.507812 35.382812 -49.296875 32.3125 -49.296875 C 27.363281 -49.296875 23.375 -47.488281 20.34375 -43.875 C 17.3125 -40.257812 15.796875 -35.660156 15.796875 -30.078125 C 15.796875 -24.253906 17.210938 -19.570312 20.046875 -16.03125 C 22.878906 -12.5 26.613281 -10.734375 31.25 -10.734375 Z M 31.25 -10.734375 "/></g></g></g><g fill="#ffffff" fill-opacity="1"><g transform="translate(246.878712, 291.193399)"><g><path d="M 31.84375 -60.03125 C 33.96875 -60.03125 35.65625 -59.578125 36.90625 -58.671875 C 38.164062 -57.765625 38.796875 -56.289062 38.796875 -54.25 C 38.796875 -52.363281 38.164062 -50.867188 36.90625 -49.765625 C 35.65625 -48.671875 33.96875 -48.125 31.84375 -48.125 C 26.882812 -48.125 23.398438 -46.351562 21.390625 -42.8125 C 19.390625 -39.269531 18.390625 -34.472656 18.390625 -28.421875 L 18.390625 -6.015625 C 18.390625 -4.285156 17.757812 -2.847656 16.5 -1.703125 C 15.25 -0.566406 13.71875 0 11.90625 0 C 9.863281 0 8.210938 -0.566406 6.953125 -1.703125 C 5.703125 -2.847656 5.078125 -4.285156 5.078125 -6.015625 L 5.078125 -54.015625 C 5.078125 -55.898438 5.800781 -57.375 7.25 -58.4375 C 8.707031 -59.5 10.257812 -60.03125 11.90625 -60.03125 C 13.5625 -60.03125 15.054688 -59.519531 16.390625 -58.5 C 17.722656 -57.476562 18.390625 -55.984375 18.390625 -54.015625 L 18.390625 -53.3125 C 20.128906 -55.59375 22.132812 -57.28125 24.40625 -58.375 C 26.6875 -59.476562 29.164062 -60.03125 31.84375 -60.03125 Z M 31.84375 -60.03125 "/></g></g></g><g fill="#ffffff" fill-opacity="1"><g transform="translate(282.13802, 291.193399)"><g><path d="M 39.75 -61.203125 C 45.25 -61.203125 49.925781 -60.003906 53.78125 -57.609375 C 57.632812 -55.210938 60.582031 -51.890625 62.625 -47.640625 C 64.664062 -43.398438 65.6875 -38.445312 65.6875 -32.78125 L 65.6875 -6.125 C 65.6875 -4.320312 65.097656 -2.847656 63.921875 -1.703125 C 62.742188 -0.566406 61.09375 0 58.96875 0 C 57 0 55.382812 -0.566406 54.125 -1.703125 C 52.875 -2.847656 52.25 -4.320312 52.25 -6.125 L 52.25 -33.015625 C 52.25 -37.890625 51.085938 -41.84375 48.765625 -44.875 C 46.441406 -47.90625 42.765625 -49.421875 37.734375 -49.421875 C 36.242188 -49.421875 34.457031 -49.003906 32.375 -48.171875 C 30.289062 -47.347656 28.242188 -46.109375 26.234375 -44.453125 C 24.234375 -42.804688 22.582031 -40.722656 21.28125 -38.203125 C 19.988281 -35.691406 19.34375 -32.707031 19.34375 -29.25 L 19.34375 -6.015625 C 19.34375 -2.003906 17.179688 0 12.859375 0 C 10.804688 0 9.128906 -0.53125 7.828125 -1.59375 C 6.535156 -2.65625 5.890625 -4.128906 5.890625 -6.015625 L 5.890625 -54.015625 C 5.890625 -55.984375 6.578125 -57.476562 7.953125 -58.5 C 9.335938 -59.519531 10.894531 -60.03125 12.625 -60.03125 C 14.269531 -60.03125 15.800781 -59.519531 17.21875 -58.5 C 18.632812 -57.476562 19.34375 -56.0625 19.34375 -54.25 L 19.34375 -53.421875 C 22.71875 -56.566406 26.210938 -58.648438 29.828125 -59.671875 C 33.453125 -60.691406 36.757812 -61.203125 39.75 -61.203125 Z M 39.75 -61.203125 "/></g></g></g><g fill="#ffffff" fill-opacity="1"><g transform="translate(353.719044, 291.193399)"><g><path d="M 1.53125 -14.03125 C 0.976562 -16.238281 1.488281 -18.007812 3.0625 -19.34375 C 4.632812 -20.675781 6.363281 -21.34375 8.25 -21.34375 C 9.664062 -21.34375 10.925781 -20.929688 12.03125 -20.109375 C 13.132812 -19.285156 13.957031 -18.046875 14.5 -16.390625 C 14.976562 -14.972656 16.003906 -13.8125 17.578125 -12.90625 C 19.148438 -12.007812 20.976562 -11.363281 23.0625 -10.96875 C 25.144531 -10.570312 27.242188 -10.375 29.359375 -10.375 C 33.609375 -10.375 37.03125 -11.140625 39.625 -12.671875 C 42.21875 -14.210938 43.515625 -16.160156 43.515625 -18.515625 C 43.515625 -20.171875 42.828125 -21.390625 41.453125 -22.171875 C 40.078125 -22.960938 38.269531 -23.515625 36.03125 -23.828125 C 33.789062 -24.140625 31.410156 -24.375 28.890625 -24.53125 C 25.585938 -24.84375 22.34375 -25.234375 19.15625 -25.703125 C 15.976562 -26.179688 13.09375 -26.988281 10.5 -28.125 C 7.90625 -29.269531 5.820312 -30.960938 4.25 -33.203125 C 2.675781 -35.441406 1.890625 -38.488281 1.890625 -42.34375 C 1.890625 -46.113281 2.988281 -49.410156 5.1875 -52.234375 C 7.382812 -55.066406 10.488281 -57.269531 14.5 -58.84375 C 18.507812 -60.414062 23.148438 -61.203125 28.421875 -61.203125 C 31.484375 -61.203125 34.785156 -60.90625 38.328125 -60.3125 C 41.867188 -59.726562 45.148438 -58.53125 48.171875 -56.71875 C 51.203125 -54.914062 53.425781 -52.128906 54.84375 -48.359375 C 55.394531 -46.785156 55.351562 -45.390625 54.71875 -44.171875 C 54.09375 -42.953125 53.171875 -42.023438 51.953125 -41.390625 C 50.734375 -40.765625 49.492188 -40.453125 48.234375 -40.453125 C 46.816406 -40.453125 45.65625 -40.726562 44.75 -41.28125 C 43.851562 -41.832031 43.085938 -42.773438 42.453125 -44.109375 C 41.742188 -45.753906 40.546875 -46.96875 38.859375 -47.75 C 37.171875 -48.539062 35.363281 -49.035156 33.4375 -49.234375 C 31.507812 -49.429688 29.835938 -49.53125 28.421875 -49.53125 C 24.492188 -49.53125 21.328125 -48.863281 18.921875 -47.53125 C 16.523438 -46.195312 15.328125 -44.425781 15.328125 -42.21875 C 15.328125 -40.332031 15.957031 -39.054688 17.21875 -38.390625 C 18.476562 -37.722656 20.1875 -37.328125 22.34375 -37.203125 C 24.507812 -37.085938 26.929688 -36.875 29.609375 -36.5625 C 32.910156 -36.164062 36.171875 -35.734375 39.390625 -35.265625 C 42.617188 -34.796875 45.566406 -33.988281 48.234375 -32.84375 C 50.910156 -31.707031 53.035156 -30.015625 54.609375 -27.765625 C 56.179688 -25.523438 56.96875 -22.441406 56.96875 -18.515625 C 56.96875 -14.660156 55.804688 -11.238281 53.484375 -8.25 C 51.160156 -5.269531 47.9375 -2.953125 43.8125 -1.296875 C 39.6875 0.347656 34.867188 1.171875 29.359375 1.171875 C 26.921875 1.171875 24.265625 0.992188 21.390625 0.640625 C 18.523438 0.296875 15.738281 -0.40625 13.03125 -1.46875 C 10.320312 -2.53125 7.941406 -4.0625 5.890625 -6.0625 C 3.847656 -8.070312 2.394531 -10.726562 1.53125 -14.03125 Z M 1.53125 -14.03125 "/></g></g></g><g fill="#ffffff" fill-opacity="1"><g transform="translate(412.328038, 291.193399)"><g><path d="M 46.578125 -43.875 C 44.773438 -46 42.65625 -47.492188 40.21875 -48.359375 C 37.78125 -49.222656 35.378906 -49.65625 33.015625 -49.65625 C 27.828125 -49.65625 23.660156 -47.863281 20.515625 -44.28125 C 17.367188 -40.707031 15.796875 -35.894531 15.796875 -29.84375 C 15.796875 -24.019531 17.425781 -19.335938 20.6875 -15.796875 C 23.957031 -12.265625 28.226562 -10.5 33.5 -10.5 C 35.851562 -10.5 38.25 -10.910156 40.6875 -11.734375 C 43.125 -12.554688 45.285156 -13.910156 47.171875 -15.796875 C 48.898438 -17.523438 50.609375 -18.429688 52.296875 -18.515625 C 53.992188 -18.597656 55.390625 -18.125 56.484375 -17.09375 C 57.585938 -16.070312 58.195312 -14.753906 58.3125 -13.140625 C 58.4375 -11.535156 57.75 -9.90625 56.25 -8.25 C 53.1875 -4.875 49.671875 -2.457031 45.703125 -1 C 41.734375 0.445312 37.625 1.171875 33.375 1.171875 C 27.164062 1.171875 21.722656 -0.125 17.046875 -2.71875 C 12.367188 -5.3125 8.726562 -8.925781 6.125 -13.5625 C 3.53125 -18.195312 2.234375 -23.582031 2.234375 -29.71875 C 2.234375 -36.082031 3.507812 -41.625 6.0625 -46.34375 C 8.625 -51.0625 12.222656 -54.71875 16.859375 -57.3125 C 21.503906 -59.90625 26.890625 -61.203125 33.015625 -61.203125 C 37.347656 -61.203125 41.378906 -60.535156 45.109375 -59.203125 C 48.847656 -57.867188 52.289062 -55.351562 55.4375 -51.65625 C 56.84375 -50.007812 57.445312 -48.398438 57.25 -46.828125 C 57.0625 -45.253906 56.375 -43.953125 55.1875 -42.921875 C 54.007812 -41.898438 52.613281 -41.410156 51 -41.453125 C 49.394531 -41.492188 47.921875 -42.300781 46.578125 -43.875 Z M 46.578125 -43.875 "/></g></g></g><g fill="#ffffff" fill-opacity="1"><g transform="translate(471.290791, 291.193399)"><g><path d="M 54.84375 -60.03125 C 56.882812 -60.03125 58.515625 -59.457031 59.734375 -58.3125 C 60.953125 -57.175781 61.5625 -55.703125 61.5625 -53.890625 L 61.5625 -6.125 C 61.5625 -4.320312 60.953125 -2.847656 59.734375 -1.703125 C 58.515625 -0.566406 56.882812 0 54.84375 0 C 52.875 0 51.335938 -0.453125 50.234375 -1.359375 C 49.140625 -2.265625 48.472656 -3.460938 48.234375 -4.953125 C 45.566406 -2.828125 42.578125 -1.273438 39.265625 -0.296875 C 35.960938 0.679688 32.820312 1.171875 29.84375 1.171875 C 24.175781 1.171875 19.28125 -0.125 15.15625 -2.71875 C 11.03125 -5.3125 7.863281 -8.960938 5.65625 -13.671875 C 3.457031 -18.390625 2.359375 -23.894531 2.359375 -30.1875 C 2.359375 -36.320312 3.578125 -41.707031 6.015625 -46.34375 C 8.453125 -50.988281 11.851562 -54.625 16.21875 -57.25 C 20.582031 -59.882812 25.632812 -61.203125 31.375 -61.203125 C 33.882812 -61.203125 36.671875 -60.726562 39.734375 -59.78125 C 42.804688 -58.84375 45.640625 -57.351562 48.234375 -55.3125 C 48.546875 -56.726562 49.253906 -57.867188 50.359375 -58.734375 C 51.460938 -59.597656 52.957031 -60.03125 54.84375 -60.03125 Z M 31.25 -10.734375 C 34.707031 -10.734375 38.046875 -11.5 41.265625 -13.03125 C 44.492188 -14.5625 46.78125 -16.820312 48.125 -19.8125 L 48.125 -40.21875 C 46.625 -43.125 44.378906 -45.363281 41.390625 -46.9375 C 38.410156 -48.507812 35.382812 -49.296875 32.3125 -49.296875 C 27.363281 -49.296875 23.375 -47.488281 20.34375 -43.875 C 17.3125 -40.257812 15.796875 -35.660156 15.796875 -30.078125 C 15.796875 -24.253906 17.210938 -19.570312 20.046875 -16.03125 C 22.878906 -12.5 26.613281 -10.734375 31.25 -10.734375 Z M 31.25 -10.734375 "/></g></g></g><g fill="#ffffff" fill-opacity="1"><g transform="translate(539.45192, 291.193399)"><g><path d="M 36.09375 -61.203125 C 41.90625 -61.203125 46.992188 -59.925781 51.359375 -57.375 C 55.722656 -54.820312 59.101562 -51.242188 61.5 -46.640625 C 63.894531 -42.046875 65.09375 -36.71875 65.09375 -30.65625 C 65.09375 -24.375 63.894531 -18.832031 61.5 -14.03125 C 59.101562 -9.238281 55.78125 -5.503906 51.53125 -2.828125 C 47.289062 -0.160156 42.300781 1.171875 36.5625 1.171875 C 33.882812 1.171875 30.972656 0.703125 27.828125 -0.234375 C 24.679688 -1.179688 21.8125 -2.519531 19.21875 -4.25 L 19.21875 13.796875 C 19.21875 15.765625 18.53125 17.257812 17.15625 18.28125 C 15.78125 19.300781 14.269531 19.8125 12.625 19.8125 C 10.894531 19.8125 9.335938 19.300781 7.953125 18.28125 C 6.578125 17.257812 5.890625 15.765625 5.890625 13.796875 L 5.890625 -54.015625 C 5.890625 -55.898438 6.5 -57.375 7.71875 -58.4375 C 8.9375 -59.5 10.609375 -60.03125 12.734375 -60.03125 C 16.273438 -60.03125 18.359375 -58.65625 18.984375 -55.90625 C 21.734375 -57.863281 24.601562 -59.234375 27.59375 -60.015625 C 30.582031 -60.804688 33.414062 -61.203125 36.09375 -61.203125 Z M 36.203125 -10.734375 C 40.847656 -10.734375 44.582031 -12.5625 47.40625 -16.21875 C 50.238281 -19.875 51.65625 -24.648438 51.65625 -30.546875 C 51.65625 -36.128906 50.140625 -40.648438 47.109375 -44.109375 C 44.085938 -47.566406 40.097656 -49.296875 35.140625 -49.296875 C 31.992188 -49.296875 28.925781 -48.488281 25.9375 -46.875 C 22.957031 -45.269531 20.71875 -42.972656 19.21875 -39.984375 L 19.21875 -20.40625 C 20.476562 -17.332031 22.71875 -14.953125 25.9375 -13.265625 C 29.164062 -11.578125 32.585938 -10.734375 36.203125 -10.734375 Z M 36.203125 -10.734375 "/></g></g></g><g fill="#ffffff" fill-opacity="1"><g transform="translate(608.084778, 291.193399)"><g><path d="M 33.734375 -10.5 C 36.015625 -10.5 38.253906 -10.8125 40.453125 -11.4375 C 42.648438 -12.070312 44.691406 -13.132812 46.578125 -14.625 C 48.390625 -16.269531 50.160156 -17.035156 51.890625 -16.921875 C 53.617188 -16.804688 55.050781 -16.175781 56.1875 -15.03125 C 57.332031 -13.894531 57.90625 -12.476562 57.90625 -10.78125 C 57.90625 -9.09375 57.082031 -7.460938 55.4375 -5.890625 C 52.675781 -3.222656 49.410156 -1.359375 45.640625 -0.296875 C 41.867188 0.765625 38.015625 1.253906 34.078125 1.171875 C 27.953125 1.171875 22.546875 -0.0820312 17.859375 -2.59375 C 13.179688 -5.113281 9.523438 -8.613281 6.890625 -13.09375 C 4.265625 -17.570312 2.953125 -22.757812 2.953125 -28.65625 C 2.953125 -35.101562 4.207031 -40.765625 6.71875 -45.640625 C 9.238281 -50.515625 12.796875 -54.328125 17.390625 -57.078125 C 21.992188 -59.828125 27.441406 -61.203125 33.734375 -61.203125 C 40.023438 -61.203125 45.367188 -59.925781 49.765625 -57.375 C 54.171875 -54.820312 57.53125 -51.242188 59.84375 -46.640625 C 62.164062 -42.046875 63.328125 -36.679688 63.328125 -30.546875 C 63.328125 -28.578125 62.929688 -26.90625 62.140625 -25.53125 C 61.359375 -24.15625 59.28125 -23.46875 55.90625 -23.46875 L 16.625 -23.46875 C 17.726562 -19.613281 19.8125 -16.488281 22.875 -14.09375 C 25.945312 -11.695312 29.566406 -10.5 33.734375 -10.5 Z M 33.84375 -49.53125 C 29.28125 -49.53125 25.46875 -48.09375 22.40625 -45.21875 C 19.34375 -42.351562 17.378906 -38.601562 16.515625 -33.96875 L 50.828125 -33.96875 C 50.429688 -38.601562 48.894531 -42.351562 46.21875 -45.21875 C 43.550781 -48.09375 39.425781 -49.53125 33.84375 -49.53125 Z M 33.84375 -49.53125 "/></g></g></g><g fill="#ffffff" fill-opacity="1"><g transform="translate(676.599726, 291.193399)"><g/></g></g><g fill="#ffffff" fill-opacity="1"><g transform="translate(704.311693, 291.193399)"><g><path d="M 38.5625 -76.3125 C 39.820312 -76.3125 41 -76.050781 42.09375 -75.53125 C 43.195312 -75.019531 44.023438 -74.175781 44.578125 -73 L 77.953125 -7.546875 C 78.972656 -5.816406 79.25 -4.300781 78.78125 -3 C 78.3125 -1.707031 77.40625 -0.691406 76.0625 0.046875 C 74.726562 0.796875 73.316406 1.171875 71.828125 1.171875 C 70.722656 1.171875 69.597656 0.875 68.453125 0.28125 C 67.316406 -0.300781 66.4375 -1.140625 65.8125 -2.234375 L 57.546875 -18.640625 L 19.578125 -18.640625 L 11.328125 -2.234375 C 10.773438 -0.984375 9.925781 -0.101562 8.78125 0.40625 C 7.644531 0.914062 6.523438 1.171875 5.421875 1.171875 C 4.085938 1.171875 2.769531 0.796875 1.46875 0.046875 C 0.175781 -0.691406 -0.757812 -1.707031 -1.34375 -3 C -1.9375 -4.300781 -1.878906 -5.695312 -1.171875 -7.1875 L 32.4375 -73 C 33.0625 -74.34375 33.863281 -75.226562 34.84375 -75.65625 C 35.832031 -76.09375 37.070312 -76.3125 38.5625 -76.3125 Z M 38.5625 -56.375 L 25.359375 -30.078125 L 51.78125 -30.078125 Z M 38.5625 -56.375 "/></g></g></g><g fill="#ffffff" fill-opacity="1"><g transform="translate(782.024987, 291.193399)"><g><path d="M 5.3125 -68.75 C 5.3125 -70.957031 6.015625 -72.570312 7.421875 -73.59375 C 8.835938 -74.613281 10.410156 -75.125 12.140625 -75.125 C 13.878906 -75.125 15.472656 -74.613281 16.921875 -73.59375 C 18.378906 -72.570312 19.109375 -70.957031 19.109375 -68.75 L 19.109375 -6.015625 C 19.109375 -4.046875 18.378906 -2.550781 16.921875 -1.53125 C 15.472656 -0.507812 13.878906 0 12.140625 0 C 10.410156 0 8.835938 -0.488281 7.421875 -1.46875 C 6.015625 -2.457031 5.3125 -3.972656 5.3125 -6.015625 Z M 5.3125 -68.75 "/></g></g></g><g fill="#ffffff" fill-opacity="1"><g transform="translate(19.833594, 362.169732)"><g><path d="M 25.390625 0 L 15.484375 -16.46875 L 7 -16.46875 L 7 0 L 4.515625 0 L 4.515625 -38.671875 L 15.15625 -38.671875 C 19.445312 -38.671875 22.664062 -37.660156 24.8125 -35.640625 C 26.96875 -33.617188 28.046875 -30.941406 28.046875 -27.609375 C 28.046875 -24.628906 27.207031 -22.175781 25.53125 -20.25 C 23.863281 -18.320312 21.429688 -17.132812 18.234375 -16.6875 L 28.375 0 Z M 7 -18.5625 L 15.265625 -18.5625 C 18.679688 -18.5625 21.234375 -19.390625 22.921875 -21.046875 C 24.609375 -22.703125 25.453125 -24.890625 25.453125 -27.609375 C 25.453125 -33.515625 22.019531 -36.46875 15.15625 -36.46875 L 7 -36.46875 Z M 7 -18.5625 "/></g></g></g><g fill="#ffffff" fill-opacity="1"><g transform="translate(48.623594, 362.169732)"><g><path d="M 5.78125 -36.578125 C 5.195312 -36.578125 4.703125 -36.769531 4.296875 -37.15625 C 3.890625 -37.539062 3.6875 -38.066406 3.6875 -38.734375 C 3.6875 -39.359375 3.890625 -39.867188 4.296875 -40.265625 C 4.703125 -40.671875 5.195312 -40.875 5.78125 -40.875 C 6.375 -40.875 6.867188 -40.671875 7.265625 -40.265625 C 7.671875 -39.867188 7.875 -39.359375 7.875 -38.734375 C 7.875 -38.066406 7.671875 -37.539062 7.265625 -37.15625 C 6.867188 -36.769531 6.375 -36.578125 5.78125 -36.578125 Z M 7 -29.921875 L 7 0 L 4.515625 0 L 4.515625 -29.921875 Z M 7 -29.921875 "/></g></g></g><g fill="#ffffff" fill-opacity="1"><g transform="translate(58.0903, 362.169732)"><g><path d="M 14.484375 0.4375 C 11.140625 0.4375 8.410156 -0.296875 6.296875 -1.765625 C 4.191406 -3.234375 3.007812 -5.328125 2.75 -8.046875 L 5.28125 -8.046875 C 5.46875 -6.097656 6.359375 -4.550781 7.953125 -3.40625 C 9.554688 -2.269531 11.734375 -1.703125 14.484375 -1.703125 C 16.765625 -1.703125 18.570312 -2.28125 19.90625 -3.4375 C 21.25 -4.59375 21.921875 -6.019531 21.921875 -7.71875 C 21.921875 -8.882812 21.5625 -9.84375 20.84375 -10.59375 C 20.132812 -11.351562 19.242188 -11.9375 18.171875 -12.34375 C 17.109375 -12.75 15.660156 -13.1875 13.828125 -13.65625 C 11.617188 -14.25 9.835938 -14.828125 8.484375 -15.390625 C 7.128906 -15.960938 5.972656 -16.816406 5.015625 -17.953125 C 4.054688 -19.097656 3.578125 -20.625 3.578125 -22.53125 C 3.578125 -23.925781 4 -25.21875 4.84375 -26.40625 C 5.6875 -27.601562 6.863281 -28.550781 8.375 -29.25 C 9.882812 -29.945312 11.59375 -30.296875 13.5 -30.296875 C 16.625 -30.296875 19.148438 -29.515625 21.078125 -27.953125 C 23.003906 -26.398438 24.039062 -24.242188 24.1875 -21.484375 L 21.703125 -21.484375 C 21.597656 -23.472656 20.828125 -25.085938 19.390625 -26.328125 C 17.960938 -27.578125 15.976562 -28.203125 13.4375 -28.203125 C 11.3125 -28.203125 9.550781 -27.648438 8.15625 -26.546875 C 6.757812 -25.453125 6.0625 -24.113281 6.0625 -22.53125 C 6.0625 -21.132812 6.453125 -20.003906 7.234375 -19.140625 C 8.023438 -18.273438 9 -17.613281 10.15625 -17.15625 C 11.320312 -16.695312 12.859375 -16.210938 14.765625 -15.703125 C 16.859375 -15.148438 18.535156 -14.609375 19.796875 -14.078125 C 21.066406 -13.546875 22.140625 -12.773438 23.015625 -11.765625 C 23.898438 -10.753906 24.34375 -9.40625 24.34375 -7.71875 C 24.34375 -6.175781 23.921875 -4.78125 23.078125 -3.53125 C 22.234375 -2.28125 21.054688 -1.304688 19.546875 -0.609375 C 18.046875 0.0859375 16.359375 0.4375 14.484375 0.4375 Z M 14.484375 0.4375 "/></g></g></g><g fill="#ffffff" fill-opacity="1"><g transform="translate(83.35696, 362.169732)"><g><path d="M 5.78125 -36.578125 C 5.195312 -36.578125 4.703125 -36.769531 4.296875 -37.15625 C 3.890625 -37.539062 3.6875 -38.066406 3.6875 -38.734375 C 3.6875 -39.359375 3.890625 -39.867188 4.296875 -40.265625 C 4.703125 -40.671875 5.195312 -40.875 5.78125 -40.875 C 6.375 -40.875 6.867188 -40.671875 7.265625 -40.265625 C 7.671875 -39.867188 7.875 -39.359375 7.875 -38.734375 C 7.875 -38.066406 7.671875 -37.539062 7.265625 -37.15625 C 6.867188 -36.769531 6.375 -36.578125 5.78125 -36.578125 Z M 7 -29.921875 L 7 0 L 4.515625 0 L 4.515625 -29.921875 Z M 7 -29.921875 "/></g></g></g><g fill="#ffffff" fill-opacity="1"><g transform="translate(92.823666, 362.169732)"><g><path d="M 18.015625 -30.515625 C 21.578125 -30.515625 24.476562 -29.421875 26.71875 -27.234375 C 28.957031 -25.054688 30.078125 -21.816406 30.078125 -17.515625 L 30.078125 0 L 27.65625 0 L 27.65625 -17.359375 C 27.65625 -20.921875 26.753906 -23.644531 24.953125 -25.53125 C 23.160156 -27.425781 20.71875 -28.375 17.625 -28.375 C 14.394531 -28.375 11.816406 -27.34375 9.890625 -25.28125 C 7.960938 -23.226562 7 -20.179688 7 -16.140625 L 7 0 L 4.515625 0 L 4.515625 -29.921875 L 7 -29.921875 L 7 -23.578125 C 7.84375 -25.816406 9.242188 -27.53125 11.203125 -28.71875 C 13.171875 -29.914062 15.441406 -30.515625 18.015625 -30.515625 Z M 18.015625 -30.515625 "/></g></g></g><g fill="#ffffff" fill-opacity="1"><g transform="translate(125.026911, 362.169732)"><g><path d="M 17.40625 -30.296875 C 20.5625 -30.296875 23.242188 -29.535156 25.453125 -28.015625 C 27.660156 -26.492188 29.203125 -24.535156 30.078125 -22.140625 L 30.078125 -29.921875 L 32.5625 -29.921875 L 32.5625 0.9375 C 32.5625 3.6875 31.953125 6.097656 30.734375 8.171875 C 29.523438 10.253906 27.890625 11.851562 25.828125 12.96875 C 23.773438 14.09375 21.484375 14.65625 18.953125 14.65625 C 15.203125 14.65625 12.097656 13.753906 9.640625 11.953125 C 7.179688 10.148438 5.566406 7.726562 4.796875 4.6875 L 7.265625 4.6875 C 8.003906 7.070312 9.382812 8.96875 11.40625 10.375 C 13.425781 11.789062 15.941406 12.5 18.953125 12.5 C 21.046875 12.5 22.9375 12.03125 24.625 11.09375 C 26.3125 10.164062 27.640625 8.828125 28.609375 7.078125 C 29.585938 5.335938 30.078125 3.289062 30.078125 0.9375 L 30.078125 -7.828125 C 29.203125 -5.441406 27.648438 -3.46875 25.421875 -1.90625 C 23.203125 -0.34375 20.53125 0.4375 17.40625 0.4375 C 14.613281 0.4375 12.125 -0.191406 9.9375 -1.453125 C 7.757812 -2.722656 6.050781 -4.523438 4.8125 -6.859375 C 3.582031 -9.191406 2.96875 -11.898438 2.96875 -14.984375 C 2.96875 -18.066406 3.582031 -20.765625 4.8125 -23.078125 C 6.050781 -25.398438 7.757812 -27.179688 9.9375 -28.421875 C 12.125 -29.671875 14.613281 -30.296875 17.40625 -30.296875 Z M 30.078125 -14.984375 C 30.078125 -17.585938 29.535156 -19.890625 28.453125 -21.890625 C 27.367188 -23.898438 25.890625 -25.445312 24.015625 -26.53125 C 22.148438 -27.613281 20.054688 -28.15625 17.734375 -28.15625 C 15.316406 -28.15625 13.1875 -27.628906 11.34375 -26.578125 C 9.507812 -25.535156 8.078125 -24.019531 7.046875 -22.03125 C 6.023438 -20.050781 5.515625 -17.703125 5.515625 -14.984375 C 5.515625 -12.265625 6.023438 -9.910156 7.046875 -7.921875 C 8.078125 -5.941406 9.519531 -4.421875 11.375 -3.359375 C 13.226562 -2.296875 15.347656 -1.765625 17.734375 -1.765625 C 20.054688 -1.765625 22.160156 -2.304688 24.046875 -3.390625 C 25.941406 -4.472656 27.421875 -6.015625 28.484375 -8.015625 C 29.546875 -10.015625 30.078125 -12.335938 30.078125 -14.984375 Z M 30.078125 -14.984375 "/></g></g></g><g fill="#ffffff" fill-opacity="1"><g transform="translate(159.982783, 362.169732)"><g/></g></g><g fill="#ffffff" fill-opacity="1"><g transform="translate(173.413198, 362.169732)"><g><path d="M 26.4375 -9.921875 L 8.09375 -9.921875 L 4.40625 0 L 1.703125 0 L 15.921875 -37.796875 L 18.671875 -37.796875 L 32.828125 0 L 30.140625 0 Z M 25.671875 -12.015625 L 17.296875 -34.546875 L 8.875 -12.015625 Z M 25.671875 -12.015625 "/></g></g></g><g fill="#ffffff" fill-opacity="1"><g transform="translate(205.836638, 362.169732)"><g><path d="M 7 -22.03125 C 7.914062 -24.457031 9.472656 -26.441406 11.671875 -27.984375 C 13.878906 -29.523438 16.546875 -30.296875 19.671875 -30.296875 C 22.460938 -30.296875 24.945312 -29.671875 27.125 -28.421875 C 29.3125 -27.179688 31.019531 -25.398438 32.25 -23.078125 C 33.488281 -20.765625 34.109375 -18.066406 34.109375 -14.984375 C 34.109375 -11.898438 33.488281 -9.191406 32.25 -6.859375 C 31.019531 -4.523438 29.3125 -2.722656 27.125 -1.453125 C 24.945312 -0.191406 22.460938 0.4375 19.671875 0.4375 C 16.546875 0.4375 13.867188 -0.332031 11.640625 -1.875 C 9.421875 -3.414062 7.875 -5.398438 7 -7.828125 L 7 0 L 4.515625 0 L 4.515625 -40.765625 L 7 -40.765625 Z M 31.5625 -14.984375 C 31.5625 -17.703125 31.046875 -20.050781 30.015625 -22.03125 C 28.992188 -24.019531 27.554688 -25.535156 25.703125 -26.578125 C 23.847656 -27.628906 21.707031 -28.15625 19.28125 -28.15625 C 16.96875 -28.15625 14.875 -27.613281 13 -26.53125 C 11.125 -25.445312 9.65625 -23.898438 8.59375 -21.890625 C 7.53125 -19.890625 7 -17.585938 7 -14.984375 C 7 -12.335938 7.53125 -10.015625 8.59375 -8.015625 C 9.65625 -6.015625 11.125 -4.472656 13 -3.390625 C 14.875 -2.304688 16.96875 -1.765625 19.28125 -1.765625 C 21.707031 -1.765625 23.847656 -2.296875 25.703125 -3.359375 C 27.554688 -4.421875 28.992188 -5.941406 30.015625 -7.921875 C 31.046875 -9.910156 31.5625 -12.265625 31.5625 -14.984375 Z M 31.5625 -14.984375 "/></g></g></g><g fill="#ffffff" fill-opacity="1"><g transform="translate(240.792503, 362.169732)"><g><path d="M 17.6875 0.4375 C 14.894531 0.4375 12.378906 -0.1875 10.140625 -1.4375 C 7.898438 -2.6875 6.144531 -4.472656 4.875 -6.796875 C 3.601562 -9.128906 2.96875 -11.859375 2.96875 -14.984375 C 2.96875 -18.066406 3.609375 -20.773438 4.890625 -23.109375 C 6.179688 -25.441406 7.957031 -27.222656 10.21875 -28.453125 C 12.476562 -29.679688 15.003906 -30.296875 17.796875 -30.296875 C 20.585938 -30.296875 23.101562 -29.679688 25.34375 -28.453125 C 27.582031 -27.222656 29.332031 -25.453125 30.59375 -23.140625 C 31.863281 -20.828125 32.5 -18.109375 32.5 -14.984375 C 32.5 -11.859375 31.859375 -9.128906 30.578125 -6.796875 C 29.296875 -4.472656 27.523438 -2.6875 25.265625 -1.4375 C 23.003906 -0.1875 20.476562 0.4375 17.6875 0.4375 Z M 17.6875 -1.765625 C 19.851562 -1.765625 21.878906 -2.25 23.765625 -3.21875 C 25.660156 -4.195312 27.175781 -5.675781 28.3125 -7.65625 C 29.457031 -9.644531 30.03125 -12.085938 30.03125 -14.984375 C 30.03125 -17.847656 29.457031 -20.269531 28.3125 -22.25 C 27.175781 -24.238281 25.671875 -25.71875 23.796875 -26.6875 C 21.921875 -27.664062 19.898438 -28.15625 17.734375 -28.15625 C 15.566406 -28.15625 13.554688 -27.664062 11.703125 -26.6875 C 9.847656 -25.71875 8.351562 -24.238281 7.21875 -22.25 C 6.082031 -20.269531 5.515625 -17.847656 5.515625 -14.984375 C 5.515625 -12.085938 6.070312 -9.644531 7.1875 -7.65625 C 8.3125 -5.675781 9.800781 -4.195312 11.65625 -3.21875 C 13.507812 -2.25 15.519531 -1.765625 17.6875 -1.765625 Z M 17.6875 -1.765625 "/></g></g></g><g fill="#ffffff" fill-opacity="1"><g transform="translate(274.206886, 362.169732)"><g><path d="M 14.65625 -2.703125 L 25.671875 -29.921875 L 28.3125 -29.921875 L 15.921875 0 L 13.328125 0 L 0.9375 -29.921875 L 3.640625 -29.921875 Z M 14.65625 -2.703125 "/></g></g></g><g fill="#ffffff" fill-opacity="1"><g transform="translate(301.345303, 362.169732)"><g><path d="M 31.453125 -16.96875 C 31.453125 -15.644531 31.414062 -14.65625 31.34375 -14 L 5.515625 -14 C 5.585938 -11.3125 6.171875 -9.050781 7.265625 -7.21875 C 8.367188 -5.382812 9.820312 -4.003906 11.625 -3.078125 C 13.425781 -2.160156 15.390625 -1.703125 17.515625 -1.703125 C 20.453125 -1.703125 22.910156 -2.425781 24.890625 -3.875 C 26.878906 -5.332031 28.132812 -7.3125 28.65625 -9.8125 L 31.234375 -9.8125 C 30.648438 -6.757812 29.144531 -4.285156 26.71875 -2.390625 C 24.289062 -0.503906 21.222656 0.4375 17.515625 0.4375 C 14.722656 0.4375 12.222656 -0.1875 10.015625 -1.4375 C 7.816406 -2.6875 6.09375 -4.472656 4.84375 -6.796875 C 3.59375 -9.128906 2.96875 -11.859375 2.96875 -14.984375 C 2.96875 -18.109375 3.582031 -20.828125 4.8125 -23.140625 C 6.050781 -25.453125 7.769531 -27.222656 9.96875 -28.453125 C 12.175781 -29.679688 14.691406 -30.296875 17.515625 -30.296875 C 20.378906 -30.296875 22.867188 -29.679688 24.984375 -28.453125 C 27.097656 -27.222656 28.703125 -25.585938 29.796875 -23.546875 C 30.898438 -21.515625 31.453125 -19.320312 31.453125 -16.96875 Z M 28.984375 -16.03125 C 29.085938 -18.675781 28.613281 -20.914062 27.5625 -22.75 C 26.519531 -24.59375 25.097656 -25.960938 23.296875 -26.859375 C 21.503906 -27.753906 19.5625 -28.203125 17.46875 -28.203125 C 15.375 -28.203125 13.4375 -27.753906 11.65625 -26.859375 C 9.875 -25.960938 8.421875 -24.59375 7.296875 -22.75 C 6.179688 -20.914062 5.585938 -18.675781 5.515625 -16.03125 Z M 28.984375 -16.03125 "/></g></g></g><g fill="#ffffff" fill-opacity="1"><g transform="translate(333.658636, 362.169732)"><g><path d="M 6.171875 -5.78125 L 0.984375 8.3125 L -0.875 8.3125 L 3.3125 -5.78125 Z M 6.171875 -5.78125 "/></g></g></g><g fill="#ffffff" fill-opacity="1"><g transform="translate(339.436827, 362.169732)"><g/></g></g><g fill="#ffffff" fill-opacity="1"><g transform="translate(352.867242, 362.169732)"><g><path d="M 21.765625 0.4375 C 18.203125 0.4375 14.988281 -0.394531 12.125 -2.0625 C 9.257812 -3.738281 7.015625 -6.082031 5.390625 -9.09375 C 3.773438 -12.101562 2.96875 -15.5 2.96875 -19.28125 C 2.96875 -23.101562 3.773438 -26.507812 5.390625 -29.5 C 7.015625 -32.5 9.257812 -34.832031 12.125 -36.5 C 14.988281 -38.164062 18.203125 -39 21.765625 -39 C 25.328125 -39 28.539062 -38.164062 31.40625 -36.5 C 34.269531 -34.832031 36.507812 -32.5 38.125 -29.5 C 39.738281 -26.507812 40.546875 -23.101562 40.546875 -19.28125 C 40.546875 -15.5 39.738281 -12.101562 38.125 -9.09375 C 36.507812 -6.082031 34.269531 -3.738281 31.40625 -2.0625 C 28.539062 -0.394531 25.328125 0.4375 21.765625 0.4375 Z M 21.765625 -1.765625 C 24.804688 -1.765625 27.554688 -2.476562 30.015625 -3.90625 C 32.484375 -5.34375 34.421875 -7.382812 35.828125 -10.03125 C 37.242188 -12.675781 37.953125 -15.757812 37.953125 -19.28125 C 37.953125 -22.84375 37.242188 -25.945312 35.828125 -28.59375 C 34.421875 -31.238281 32.484375 -33.273438 30.015625 -34.703125 C 27.554688 -36.140625 24.804688 -36.859375 21.765625 -36.859375 C 18.710938 -36.859375 15.957031 -36.140625 13.5 -34.703125 C 11.039062 -33.273438 9.09375 -31.238281 7.65625 -28.59375 C 6.226562 -25.945312 5.515625 -22.84375 5.515625 -19.28125 C 5.515625 -15.757812 6.226562 -12.675781 7.65625 -10.03125 C 9.09375 -7.382812 11.039062 -5.34375 13.5 -3.90625 C 15.957031 -2.476562 18.710938 -1.765625 21.765625 -1.765625 Z M 21.765625 -1.765625 "/></g></g></g><g fill="#ffffff" fill-opacity="1"><g transform="translate(394.264187, 362.169732)"><g><path d="M 18.015625 -30.515625 C 21.578125 -30.515625 24.476562 -29.421875 26.71875 -27.234375 C 28.957031 -25.054688 30.078125 -21.816406 30.078125 -17.515625 L 30.078125 0 L 27.65625 0 L 27.65625 -17.359375 C 27.65625 -20.921875 26.753906 -23.644531 24.953125 -25.53125 C 23.160156 -27.425781 20.71875 -28.375 17.625 -28.375 C 14.394531 -28.375 11.816406 -27.34375 9.890625 -25.28125 C 7.960938 -23.226562 7 -20.179688 7 -16.140625 L 7 0 L 4.515625 0 L 4.515625 -29.921875 L 7 -29.921875 L 7 -23.578125 C 7.84375 -25.816406 9.242188 -27.53125 11.203125 -28.71875 C 13.171875 -29.914062 15.441406 -30.515625 18.015625 -30.515625 Z M 18.015625 -30.515625 "/></g></g></g><g fill="#ffffff" fill-opacity="1"><g transform="translate(426.467425, 362.169732)"><g><path d="M 31.453125 -16.96875 C 31.453125 -15.644531 31.414062 -14.65625 31.34375 -14 L 5.515625 -14 C 5.585938 -11.3125 6.171875 -9.050781 7.265625 -7.21875 C 8.367188 -5.382812 9.820312 -4.003906 11.625 -3.078125 C 13.425781 -2.160156 15.390625 -1.703125 17.515625 -1.703125 C 20.453125 -1.703125 22.910156 -2.425781 24.890625 -3.875 C 26.878906 -5.332031 28.132812 -7.3125 28.65625 -9.8125 L 31.234375 -9.8125 C 30.648438 -6.757812 29.144531 -4.285156 26.71875 -2.390625 C 24.289062 -0.503906 21.222656 0.4375 17.515625 0.4375 C 14.722656 0.4375 12.222656 -0.1875 10.015625 -1.4375 C 7.816406 -2.6875 6.09375 -4.472656 4.84375 -6.796875 C 3.59375 -9.128906 2.96875 -11.859375 2.96875 -14.984375 C 2.96875 -18.109375 3.582031 -20.828125 4.8125 -23.140625 C 6.050781 -25.453125 7.769531 -27.222656 9.96875 -28.453125 C 12.175781 -29.679688 14.691406 -30.296875 17.515625 -30.296875 C 20.378906 -30.296875 22.867188 -29.679688 24.984375 -28.453125 C 27.097656 -27.222656 28.703125 -25.585938 29.796875 -23.546875 C 30.898438 -21.515625 31.453125 -19.320312 31.453125 -16.96875 Z M 28.984375 -16.03125 C 29.085938 -18.675781 28.613281 -20.914062 27.5625 -22.75 C 26.519531 -24.59375 25.097656 -25.960938 23.296875 -26.859375 C 21.503906 -27.753906 19.5625 -28.203125 17.46875 -28.203125 C 15.375 -28.203125 13.4375 -27.753906 11.65625 -26.859375 C 9.875 -25.960938 8.421875 -24.59375 7.296875 -22.75 C 6.179688 -20.914062 5.585938 -18.675781 5.515625 -16.03125 Z M 28.984375 -16.03125 "/></g></g></g><g fill="#ffffff" fill-opacity="1"><g transform="translate(458.780758, 362.169732)"><g/></g></g><g fill="#ffffff" fill-opacity="1"><g transform="translate(472.211173, 362.169732)"><g><path d="M 15.703125 0.390625 C 13.203125 0.390625 11.015625 -0.0507812 9.140625 -0.9375 C 7.265625 -1.820312 5.804688 -3.015625 4.765625 -4.515625 C 3.722656 -6.023438 3.125 -7.695312 2.96875 -9.53125 L 5.5625 -9.53125 C 5.851562 -7.507812 6.796875 -5.707031 8.390625 -4.125 C 9.992188 -2.550781 12.429688 -1.765625 15.703125 -1.765625 C 17.609375 -1.765625 19.269531 -2.113281 20.6875 -2.8125 C 22.101562 -3.507812 23.195312 -4.460938 23.96875 -5.671875 C 24.738281 -6.890625 25.125 -8.234375 25.125 -9.703125 C 25.125 -11.566406 24.671875 -13.050781 23.765625 -14.15625 C 22.867188 -15.257812 21.75 -16.085938 20.40625 -16.640625 C 19.070312 -17.191406 17.265625 -17.78125 14.984375 -18.40625 C 12.484375 -19.0625 10.472656 -19.71875 8.953125 -20.375 C 7.429688 -21.039062 6.144531 -22.0625 5.09375 -23.4375 C 4.050781 -24.820312 3.53125 -26.707031 3.53125 -29.09375 C 3.53125 -30.925781 4.015625 -32.601562 4.984375 -34.125 C 5.960938 -35.65625 7.347656 -36.859375 9.140625 -37.734375 C 10.941406 -38.617188 13.019531 -39.0625 15.375 -39.0625 C 18.789062 -39.0625 21.546875 -38.21875 23.640625 -36.53125 C 25.734375 -34.84375 26.976562 -32.765625 27.375 -30.296875 L 24.734375 -30.296875 C 24.515625 -31.296875 24.023438 -32.304688 23.265625 -33.328125 C 22.515625 -34.359375 21.453125 -35.210938 20.078125 -35.890625 C 18.703125 -36.566406 17.0625 -36.90625 15.15625 -36.90625 C 12.582031 -36.90625 10.410156 -36.195312 8.640625 -34.78125 C 6.878906 -33.375 6 -31.492188 6 -29.140625 C 6 -27.265625 6.457031 -25.765625 7.375 -24.640625 C 8.300781 -23.523438 9.429688 -22.679688 10.765625 -22.109375 C 12.109375 -21.546875 13.921875 -20.972656 16.203125 -20.390625 C 18.734375 -19.691406 20.742188 -19.019531 22.234375 -18.375 C 23.722656 -17.726562 24.988281 -16.71875 26.03125 -15.34375 C 27.082031 -13.96875 27.609375 -12.101562 27.609375 -9.75 C 27.609375 -8.019531 27.144531 -6.382812 26.21875 -4.84375 C 25.300781 -3.300781 23.953125 -2.039062 22.171875 -1.0625 C 20.390625 -0.09375 18.234375 0.390625 15.703125 0.390625 Z M 15.703125 0.390625 "/></g></g></g><g fill="#ffffff" fill-opacity="1"><g transform="translate(500.615836, 362.169732)"><g><path d="M 8.203125 -27.765625 L 8.203125 -7.984375 C 8.203125 -5.785156 8.609375 -4.269531 9.421875 -3.4375 C 10.234375 -2.613281 11.664062 -2.203125 13.71875 -2.203125 L 17.078125 -2.203125 L 17.078125 0 L 13.328125 0 C 10.722656 0 8.804688 -0.613281 7.578125 -1.84375 C 6.347656 -3.070312 5.734375 -5.117188 5.734375 -7.984375 L 5.734375 -27.765625 L 1.21875 -27.765625 L 1.21875 -29.921875 L 5.734375 -29.921875 L 5.734375 -37.515625 L 8.203125 -37.515625 L 8.203125 -29.921875 L 17.078125 -29.921875 L 17.078125 -27.765625 Z M 8.203125 -27.765625 "/></g></g></g><g fill="#ffffff" fill-opacity="1"><g transform="translate(517.624693, 362.169732)"><g><path d="M 31.453125 -16.96875 C 31.453125 -15.644531 31.414062 -14.65625 31.34375 -14 L 5.515625 -14 C 5.585938 -11.3125 6.171875 -9.050781 7.265625 -7.21875 C 8.367188 -5.382812 9.820312 -4.003906 11.625 -3.078125 C 13.425781 -2.160156 15.390625 -1.703125 17.515625 -1.703125 C 20.453125 -1.703125 22.910156 -2.425781 24.890625 -3.875 C 26.878906 -5.332031 28.132812 -7.3125 28.65625 -9.8125 L 31.234375 -9.8125 C 30.648438 -6.757812 29.144531 -4.285156 26.71875 -2.390625 C 24.289062 -0.503906 21.222656 0.4375 17.515625 0.4375 C 14.722656 0.4375 12.222656 -0.1875 10.015625 -1.4375 C 7.816406 -2.6875 6.09375 -4.472656 4.84375 -6.796875 C 3.59375 -9.128906 2.96875 -11.859375 2.96875 -14.984375 C 2.96875 -18.109375 3.582031 -20.828125 4.8125 -23.140625 C 6.050781 -25.453125 7.769531 -27.222656 9.96875 -28.453125 C 12.175781 -29.679688 14.691406 -30.296875 17.515625 -30.296875 C 20.378906 -30.296875 22.867188 -29.679688 24.984375 -28.453125 C 27.097656 -27.222656 28.703125 -25.585938 29.796875 -23.546875 C 30.898438 -21.515625 31.453125 -19.320312 31.453125 -16.96875 Z M 28.984375 -16.03125 C 29.085938 -18.675781 28.613281 -20.914062 27.5625 -22.75 C 26.519531 -24.59375 25.097656 -25.960938 23.296875 -26.859375 C 21.503906 -27.753906 19.5625 -28.203125 17.46875 -28.203125 C 15.375 -28.203125 13.4375 -27.753906 11.65625 -26.859375 C 9.875 -25.960938 8.421875 -24.59375 7.296875 -22.75 C 6.179688 -20.914062 5.585938 -18.675781 5.515625 -16.03125 Z M 28.984375 -16.03125 "/></g></g></g><g fill="#ffffff" fill-opacity="1"><g transform="translate(549.938053, 362.169732)"><g><path d="M 7 -22.03125 C 7.84375 -24.457031 9.375 -26.441406 11.59375 -27.984375 C 13.820312 -29.523438 16.515625 -30.296875 19.671875 -30.296875 C 22.460938 -30.296875 24.945312 -29.671875 27.125 -28.421875 C 29.3125 -27.179688 31.019531 -25.398438 32.25 -23.078125 C 33.488281 -20.765625 34.109375 -18.066406 34.109375 -14.984375 C 34.109375 -11.898438 33.488281 -9.191406 32.25 -6.859375 C 31.019531 -4.523438 29.3125 -2.722656 27.125 -1.453125 C 24.945312 -0.191406 22.460938 0.4375 19.671875 0.4375 C 16.546875 0.4375 13.867188 -0.34375 11.640625 -1.90625 C 9.421875 -3.46875 7.875 -5.441406 7 -7.828125 L 7 14.109375 L 4.515625 14.109375 L 4.515625 -29.921875 L 7 -29.921875 Z M 31.5625 -14.984375 C 31.5625 -17.703125 31.046875 -20.050781 30.015625 -22.03125 C 28.992188 -24.019531 27.554688 -25.535156 25.703125 -26.578125 C 23.847656 -27.628906 21.707031 -28.15625 19.28125 -28.15625 C 16.96875 -28.15625 14.875 -27.613281 13 -26.53125 C 11.125 -25.445312 9.65625 -23.898438 8.59375 -21.890625 C 7.53125 -19.890625 7 -17.585938 7 -14.984375 C 7 -12.335938 7.53125 -10.015625 8.59375 -8.015625 C 9.65625 -6.015625 11.125 -4.472656 13 -3.390625 C 14.875 -2.304688 16.96875 -1.765625 19.28125 -1.765625 C 21.707031 -1.765625 23.847656 -2.296875 25.703125 -3.359375 C 27.554688 -4.421875 28.992188 -5.941406 30.015625 -7.921875 C 31.046875 -9.910156 31.5625 -12.265625 31.5625 -14.984375 Z M 31.5625 -14.984375 "/></g></g></g><g fill="#ffffff" fill-opacity="1"><g transform="translate(584.893945, 362.169732)"><g/></g></g><g fill="#ffffff" fill-opacity="1"><g transform="translate(598.324388, 362.169732)"><g><path d="M 2.96875 -14.984375 C 2.96875 -18.066406 3.582031 -20.765625 4.8125 -23.078125 C 6.050781 -25.398438 7.757812 -27.179688 9.9375 -28.421875 C 12.125 -29.671875 14.613281 -30.296875 17.40625 -30.296875 C 20.5625 -30.296875 23.242188 -29.523438 25.453125 -27.984375 C 27.660156 -26.441406 29.203125 -24.476562 30.078125 -22.09375 L 30.078125 -29.921875 L 32.5625 -29.921875 L 32.5625 0 L 30.078125 0 L 30.078125 -7.875 C 29.203125 -5.457031 27.648438 -3.46875 25.421875 -1.90625 C 23.203125 -0.34375 20.53125 0.4375 17.40625 0.4375 C 14.613281 0.4375 12.125 -0.191406 9.9375 -1.453125 C 7.757812 -2.722656 6.050781 -4.523438 4.8125 -6.859375 C 3.582031 -9.191406 2.96875 -11.898438 2.96875 -14.984375 Z M 30.078125 -14.984375 C 30.078125 -17.585938 29.535156 -19.890625 28.453125 -21.890625 C 27.367188 -23.898438 25.890625 -25.445312 24.015625 -26.53125 C 22.148438 -27.613281 20.054688 -28.15625 17.734375 -28.15625 C 15.316406 -28.15625 13.1875 -27.628906 11.34375 -26.578125 C 9.507812 -25.535156 8.078125 -24.019531 7.046875 -22.03125 C 6.023438 -20.050781 5.515625 -17.703125 5.515625 -14.984375 C 5.515625 -12.265625 6.023438 -9.910156 7.046875 -7.921875 C 8.078125 -5.941406 9.519531 -4.421875 11.375 -3.359375 C 13.226562 -2.296875 15.347656 -1.765625 17.734375 -1.765625 C 20.054688 -1.765625 22.160156 -2.304688 24.046875 -3.390625 C 25.941406 -4.472656 27.421875 -6.015625 28.484375 -8.015625 C 29.546875 -10.015625 30.078125 -12.335938 30.078125 -14.984375 Z M 30.078125 -14.984375 "/></g></g></g><g fill="#ffffff" fill-opacity="1"><g transform="translate(633.28028, 362.169732)"><g><path d="M 8.203125 -27.765625 L 8.203125 -7.984375 C 8.203125 -5.785156 8.609375 -4.269531 9.421875 -3.4375 C 10.234375 -2.613281 11.664062 -2.203125 13.71875 -2.203125 L 17.078125 -2.203125 L 17.078125 0 L 13.328125 0 C 10.722656 0 8.804688 -0.613281 7.578125 -1.84375 C 6.347656 -3.070312 5.734375 -5.117188 5.734375 -7.984375 L 5.734375 -27.765625 L 1.21875 -27.765625 L 1.21875 -29.921875 L 5.734375 -29.921875 L 5.734375 -37.515625 L 8.203125 -37.515625 L 8.203125 -29.921875 L 17.078125 -29.921875 L 17.078125 -27.765625 Z M 8.203125 -27.765625 "/></g></g></g><g fill="#ffffff" fill-opacity="1"><g transform="translate(650.289137, 362.169732)"><g/></g></g><g fill="#ffffff" fill-opacity="1"><g transform="translate(663.719579, 362.169732)"><g><path d="M 2.96875 -14.984375 C 2.96875 -18.066406 3.582031 -20.765625 4.8125 -23.078125 C 6.050781 -25.398438 7.757812 -27.179688 9.9375 -28.421875 C 12.125 -29.671875 14.613281 -30.296875 17.40625 -30.296875 C 20.5625 -30.296875 23.242188 -29.523438 25.453125 -27.984375 C 27.660156 -26.441406 29.203125 -24.476562 30.078125 -22.09375 L 30.078125 -29.921875 L 32.5625 -29.921875 L 32.5625 0 L 30.078125 0 L 30.078125 -7.875 C 29.203125 -5.457031 27.648438 -3.46875 25.421875 -1.90625 C 23.203125 -0.34375 20.53125 0.4375 17.40625 0.4375 C 14.613281 0.4375 12.125 -0.191406 9.9375 -1.453125 C 7.757812 -2.722656 6.050781 -4.523438 4.8125 -6.859375 C 3.582031 -9.191406 2.96875 -11.898438 2.96875 -14.984375 Z M 30.078125 -14.984375 C 30.078125 -17.585938 29.535156 -19.890625 28.453125 -21.890625 C 27.367188 -23.898438 25.890625 -25.445312 24.015625 -26.53125 C 22.148438 -27.613281 20.054688 -28.15625 17.734375 -28.15625 C 15.316406 -28.15625 13.1875 -27.628906 11.34375 -26.578125 C 9.507812 -25.535156 8.078125 -24.019531 7.046875 -22.03125 C 6.023438 -20.050781 5.515625 -17.703125 5.515625 -14.984375 C 5.515625 -12.265625 6.023438 -9.910156 7.046875 -7.921875 C 8.078125 -5.941406 9.519531 -4.421875 11.375 -3.359375 C 13.226562 -2.296875 15.347656 -1.765625 17.734375 -1.765625 C 20.054688 -1.765625 22.160156 -2.304688 24.046875 -3.390625 C 25.941406 -4.472656 27.421875 -6.015625 28.484375 -8.015625 C 29.546875 -10.015625 30.078125 -12.335938 30.078125 -14.984375 Z M 30.078125 -14.984375 "/></g></g></g><g fill="#ffffff" fill-opacity="1"><g transform="translate(698.675471, 362.169732)"><g/></g></g><g fill="#ffffff" fill-opacity="1"><g transform="translate(712.105914, 362.169732)"><g><path d="M 25.890625 -38.671875 L 25.890625 -36.578125 L 14.875 -36.578125 L 14.875 0 L 12.390625 0 L 12.390625 -36.578125 L 1.375 -36.578125 L 1.375 -38.671875 Z M 25.890625 -38.671875 "/></g></g></g><g fill="#ffffff" fill-opacity="1"><g transform="translate(737.262501, 362.169732)"><g><path d="M 5.78125 -36.578125 C 5.195312 -36.578125 4.703125 -36.769531 4.296875 -37.15625 C 3.890625 -37.539062 3.6875 -38.066406 3.6875 -38.734375 C 3.6875 -39.359375 3.890625 -39.867188 4.296875 -40.265625 C 4.703125 -40.671875 5.195312 -40.875 5.78125 -40.875 C 6.375 -40.875 6.867188 -40.671875 7.265625 -40.265625 C 7.671875 -39.867188 7.875 -39.359375 7.875 -38.734375 C 7.875 -38.066406 7.671875 -37.539062 7.265625 -37.15625 C 6.867188 -36.769531 6.375 -36.578125 5.78125 -36.578125 Z M 7 -29.921875 L 7 0 L 4.515625 0 L 4.515625 -29.921875 Z M 7 -29.921875 "/></g></g></g><g fill="#ffffff" fill-opacity="1"><g transform="translate(746.729227, 362.169732)"><g><path d="M 39.890625 -30.515625 C 43.304688 -30.515625 46.097656 -29.421875 48.265625 -27.234375 C 50.429688 -25.054688 51.515625 -21.816406 51.515625 -17.515625 L 51.515625 0 L 49.09375 0 L 49.09375 -17.359375 C 49.09375 -20.921875 48.238281 -23.644531 46.53125 -25.53125 C 44.820312 -27.425781 42.476562 -28.375 39.5 -28.375 C 36.414062 -28.375 33.9375 -27.304688 32.0625 -25.171875 C 30.1875 -23.046875 29.25 -19.960938 29.25 -15.921875 L 29.25 0 L 26.828125 0 L 26.828125 -17.359375 C 26.828125 -20.921875 25.972656 -23.644531 24.265625 -25.53125 C 22.554688 -27.425781 20.21875 -28.375 17.25 -28.375 C 14.15625 -28.375 11.671875 -27.304688 9.796875 -25.171875 C 7.929688 -23.046875 7 -19.960938 7 -15.921875 L 7 0 L 4.515625 0 L 4.515625 -29.921875 L 7 -29.921875 L 7 -23.421875 C 7.84375 -25.765625 9.207031 -27.53125 11.09375 -28.71875 C 12.988281 -29.914062 15.164062 -30.515625 17.625 -30.515625 C 20.34375 -30.515625 22.6875 -29.804688 24.65625 -28.390625 C 26.625 -26.984375 27.972656 -24.898438 28.703125 -22.140625 C 29.398438 -24.898438 30.757812 -26.984375 32.78125 -28.390625 C 34.800781 -29.804688 37.171875 -30.515625 39.890625 -30.515625 Z M 39.890625 -30.515625 "/></g></g></g><g fill="#ffffff" fill-opacity="1"><g transform="translate(800.402813, 362.169732)"><g><path d="M 31.453125 -16.96875 C 31.453125 -15.644531 31.414062 -14.65625 31.34375 -14 L 5.515625 -14 C 5.585938 -11.3125 6.171875 -9.050781 7.265625 -7.21875 C 8.367188 -5.382812 9.820312 -4.003906 11.625 -3.078125 C 13.425781 -2.160156 15.390625 -1.703125 17.515625 -1.703125 C 20.453125 -1.703125 22.910156 -2.425781 24.890625 -3.875 C 26.878906 -5.332031 28.132812 -7.3125 28.65625 -9.8125 L 31.234375 -9.8125 C 30.648438 -6.757812 29.144531 -4.285156 26.71875 -2.390625 C 24.289062 -0.503906 21.222656 0.4375 17.515625 0.4375 C 14.722656 0.4375 12.222656 -0.1875 10.015625 -1.4375 C 7.816406 -2.6875 6.09375 -4.472656 4.84375 -6.796875 C 3.59375 -9.128906 2.96875 -11.859375 2.96875 -14.984375 C 2.96875 -18.109375 3.582031 -20.828125 4.8125 -23.140625 C 6.050781 -25.453125 7.769531 -27.222656 9.96875 -28.453125 C 12.175781 -29.679688 14.691406 -30.296875 17.515625 -30.296875 C 20.378906 -30.296875 22.867188 -29.679688 24.984375 -28.453125 C 27.097656 -27.222656 28.703125 -25.585938 29.796875 -23.546875 C 30.898438 -21.515625 31.453125 -19.320312 31.453125 -16.96875 Z M 28.984375 -16.03125 C 29.085938 -18.675781 28.613281 -20.914062 27.5625 -22.75 C 26.519531 -24.59375 25.097656 -25.960938 23.296875 -26.859375 C 21.503906 -27.753906 19.5625 -28.203125 17.46875 -28.203125 C 15.375 -28.203125 13.4375 -27.753906 11.65625 -26.859375 C 9.875 -25.960938 8.421875 -24.59375 7.296875 -22.75 C 6.179688 -20.914062 5.585938 -18.675781 5.515625 -16.03125 Z M 28.984375 -16.03125 "/></g></g></g></svg>